<svg width="2124" height="429" viewBox="0 0 2124 429" fill="none" xmlns="http://www.w3.org/2000/svg">
<path d="M428.249 214.5C428.249 332.756 332.381 428.625 214.125 428.625C95.8803 428.625 0 332.756 0 214.5C0 96.2555 95.8803 0.375244 214.125 0.375244C332.381 0.375244 428.249 96.2555 428.249 214.5Z" fill="#F4F4F4"/>
<path d="M144.843 219.449C162.234 219.449 176.332 199.711 176.332 175.363C176.332 151.015 162.234 131.277 144.843 131.277C127.453 131.277 113.355 151.015 113.355 175.363C113.355 199.711 127.453 219.449 144.843 219.449Z" fill="#545454"/>
<path d="M295.992 252.281C341.206 252.281 377.859 215.628 377.859 170.414C377.859 125.2 341.206 88.5471 295.992 88.5471C250.778 88.5471 214.125 125.2 214.125 170.414C214.125 215.628 250.778 252.281 295.992 252.281Z" fill="#8A8A8A"/>
<path d="M176.356 118.691C172.525 118.691 168.742 116.954 166.268 113.659C154.479 97.9448 142.143 89.5226 129.593 88.6304C113.058 87.5003 99.5799 99.8957 97.0699 102.406C95.9006 103.575 94.5125 104.503 92.9847 105.135C91.457 105.768 89.8195 106.094 88.1659 106.094C84.8263 106.094 81.6234 104.767 79.2619 102.406C76.9004 100.044 75.5737 96.8414 75.5737 93.5017C75.5737 90.162 76.9004 86.9592 79.2619 84.5977C84.6983 79.1613 104.588 61.5674 131.377 63.5064C151.541 64.9339 170.051 76.7227 186.419 98.5396C187.821 100.41 188.675 102.634 188.884 104.962C189.094 107.29 188.652 109.631 187.608 111.722C186.564 113.813 184.958 115.573 182.971 116.803C180.984 118.034 178.693 118.688 176.356 118.691V118.691Z" fill="#545454"/>
<path d="M390.468 428.625C387.127 428.625 383.923 427.297 381.56 424.935C379.198 422.572 377.871 419.368 377.871 416.027V176.719C377.871 173.378 379.198 170.173 381.56 167.811C383.923 165.448 387.127 164.121 390.468 164.121C393.809 164.121 397.014 165.448 399.376 167.811C401.739 170.173 403.066 173.378 403.066 176.719V416.039C403.06 419.377 401.73 422.576 399.369 424.936C397.007 427.295 393.806 428.621 390.468 428.625V428.625Z" fill="#292F33"/>
<path d="M390.468 151.523C389.826 151.523 389.219 151.666 388.589 151.714C379.881 108.556 341.684 75.9492 295.992 75.9492C243.9 75.9492 201.527 118.322 201.527 170.414C201.527 222.506 243.9 264.879 295.992 264.879C337.246 264.879 372.315 238.256 385.163 201.319C388.624 202.085 392.209 202.111 395.681 201.397C399.154 200.682 402.436 199.243 405.314 197.173C408.193 195.103 410.602 192.449 412.384 189.384C414.166 186.319 415.281 182.913 415.657 179.388C416.033 175.862 415.66 172.297 414.563 168.926C413.467 165.555 411.671 162.452 409.294 159.823C406.917 157.193 404.011 155.094 400.767 153.664C397.523 152.234 394.014 151.504 390.468 151.523ZM295.992 239.695C257.794 239.695 226.722 208.623 226.722 170.414C226.722 132.205 257.806 101.133 295.992 101.133C334.189 101.133 365.273 132.205 365.273 170.414C365.273 208.623 334.189 239.695 295.992 239.695Z" fill="#67757F"/>
<path d="M251.894 340.453C250.002 340.453 248.075 340.025 246.267 339.121C224.629 328.296 203.597 328.296 181.958 339.121C180.478 339.86 178.867 340.301 177.216 340.418C175.566 340.535 173.908 340.326 172.339 339.802C170.769 339.279 169.318 338.451 168.068 337.367C166.818 336.282 165.794 334.962 165.054 333.482C164.315 332.002 163.874 330.391 163.757 328.74C163.64 327.089 163.849 325.432 164.373 323.862C165.43 320.692 167.704 318.072 170.693 316.578C199.493 302.184 228.709 302.184 257.532 316.578C260.066 317.852 262.096 319.943 263.295 322.513C264.494 325.083 264.791 327.982 264.139 330.742C263.488 333.502 261.925 335.961 259.703 337.723C257.481 339.485 254.73 340.447 251.894 340.453V340.453Z" fill="#545454"/>
<path d="M333.666 112.327C322.461 105.019 309.369 101.133 295.992 101.145C277.617 101.145 259.995 108.444 247.002 121.437C234.01 134.43 226.71 152.052 226.71 170.426C226.71 184.332 230.85 197.251 237.892 208.1L333.666 112.327ZM266.431 232.998C275.665 237.396 285.763 239.684 295.992 239.695C314.366 239.695 331.988 232.396 344.981 219.403C357.974 206.411 365.273 188.789 365.273 170.414C365.273 159.827 362.822 149.822 358.576 140.853L266.431 232.998Z" fill="#3A3A3A"/>
<path d="M309.755 125.008V141.39C311.746 141.484 313.731 141.598 315.711 141.732V145.205C312.571 144.993 309.428 144.832 306.282 144.722V125.008H309.755V125.008ZM337.352 125.01L332.83 135.652L337.351 147.495L337.346 147.497C336.028 147.307 334.708 147.126 333.387 146.954L330.849 140.307L328.286 146.337C327.07 146.201 325.853 146.072 324.636 145.951L329.044 135.581L325.007 125.01H328.764L331.024 130.926L333.538 125.01H337.352ZM294.363 144.549V125.01H304.058V128.514H297.836V133.056H302.543V136.53H297.836V144.549L294.363 144.549V144.549ZM281.396 128.515V125.01H292.137V128.514H288.503V144.644C287.343 144.676 286.186 144.712 285.03 144.756V128.515H281.396ZM269.524 145.766V125.01H279.17V128.515H272.996V133.262C274.414 133.243 276.431 133.223 277.686 133.226V136.699C276.115 136.68 274.342 136.721 272.996 136.735V141.993C275.052 141.829 277.11 141.686 279.17 141.565V145.039C275.951 145.227 272.735 145.47 269.524 145.766V145.766ZM262.711 137.736L262.711 125.01H266.184V146.093C264.914 146.226 263.647 146.367 262.382 146.516L258.361 134.789V147.018C257.202 147.171 256.045 147.331 254.888 147.498V125.01H258.188L262.711 137.736H262.711ZM318.576 145.415V125.01H322.049V145.706C320.893 145.601 319.736 145.505 318.576 145.415V145.415Z" fill="#FF2836"/>
<path d="M276.36 160.643C276.162 159.914 275.777 159.249 275.243 158.714C274.708 158.18 274.043 157.795 273.314 157.597C270.643 156.869 259.895 156.869 259.895 156.869C259.895 156.869 249.147 156.891 246.476 157.62C245.747 157.817 245.082 158.202 244.547 158.736C244.013 159.271 243.628 159.936 243.431 160.665C242.623 165.41 242.309 172.641 243.453 177.196C243.65 177.925 244.035 178.59 244.569 179.125C245.104 179.659 245.769 180.044 246.498 180.241C249.169 180.97 259.917 180.97 259.917 180.97C259.917 180.97 270.665 180.97 273.336 180.241C274.065 180.044 274.73 179.659 275.265 179.125C275.799 178.59 276.184 177.925 276.381 177.196C277.233 172.444 277.496 165.218 276.359 160.643L276.36 160.643Z" fill="#FF0000"/>
<path d="M256.474 174.084L265.39 168.919L256.474 163.755V174.084Z" fill="white"/>
<path d="M346.101 163.865C347.271 163.865 348.154 164.086 348.772 164.505C349.39 164.925 349.831 165.587 350.096 166.492C350.361 167.397 350.471 168.632 350.471 170.221V172.804H344.799V173.598L344.887 175.783C344.954 176.269 345.064 176.622 345.24 176.843C345.417 177.063 345.704 177.174 346.079 177.174C346.587 177.174 346.94 176.975 347.116 176.578C347.315 176.181 347.403 175.518 347.425 174.614L350.361 174.79C350.383 174.923 350.383 175.099 350.383 175.32C350.383 176.71 350.008 177.748 349.235 178.432C348.463 179.116 347.403 179.469 346.013 179.469C344.336 179.469 343.166 178.939 342.504 177.902C341.842 176.865 341.489 175.231 341.489 173.047V170.376C341.564 166.624 342.223 163.876 346.101 163.865V163.865ZM305.293 164.152V175.209C305.293 175.872 305.36 176.357 305.514 176.644C305.827 177.258 306.64 177.101 307.081 176.799C307.336 176.626 307.541 176.391 307.677 176.114V164.152H311.054V179.226H308.405L308.118 177.372H308.052C307.324 178.763 306.242 179.469 304.808 179.469C302.6 179.463 302.06 177.872 301.931 176.257L301.923 176.143C301.907 175.898 301.897 175.653 301.895 175.408V164.152H305.293H305.293ZM322.707 164.152V175.209C322.707 175.872 322.773 176.357 322.927 176.644C323.241 177.258 324.053 177.101 324.494 176.799C324.749 176.626 324.955 176.391 325.09 176.114V164.152H328.467V179.226H325.819L325.532 177.372H325.466C324.737 178.763 323.656 179.469 322.221 179.469C320.013 179.463 319.473 177.872 319.344 176.257L319.336 176.143C319.32 175.898 319.311 175.653 319.308 175.408V164.152H322.707ZM295.494 163.865C296.598 163.865 297.503 164.086 298.165 164.549C298.827 165.013 299.334 165.719 299.643 166.69C299.952 167.661 300.107 168.963 300.107 170.575V172.759C300.107 174.371 299.952 175.651 299.643 176.622C299.334 177.593 298.849 178.299 298.165 178.763C297.481 179.204 296.554 179.447 295.406 179.447C294.214 179.469 293.287 179.226 292.603 178.785C291.919 178.321 291.433 177.615 291.146 176.644C290.859 175.673 290.727 174.393 290.727 172.782V170.597C290.727 168.985 290.882 167.661 291.213 166.69C291.544 165.697 292.051 164.991 292.758 164.549C293.464 164.108 294.369 163.865 295.494 163.865V163.865ZM333.764 157.818V165.763H333.786C334.095 165.19 334.492 164.726 335.044 164.373C335.559 164.026 336.167 163.842 336.788 163.843C337.604 163.843 338.222 164.064 338.686 164.483C339.149 164.925 339.48 165.609 339.679 166.558C339.871 167.477 339.981 168.749 339.987 170.352L339.988 170.509V172.892C339.988 175.121 339.701 176.776 339.171 177.836C338.62 178.895 337.781 179.425 336.633 179.425C335.993 179.425 335.419 179.27 334.89 178.984C334.421 178.711 334.033 178.319 333.764 177.849L333.72 177.769H333.654L333.301 179.204H330.498V157.818H333.764V157.818ZM320.257 158.591V161.327H316.902V179.226H313.592V161.327H310.215V158.591H320.257L320.257 158.591ZM283.863 158.591L283.865 158.599C283.897 158.742 284.344 160.726 284.834 163.037L284.873 163.22L284.932 163.497L284.971 163.683L284.99 163.776L285.03 163.963L285.049 164.057L285.088 164.244L285.145 164.519C285.476 166.119 285.793 167.724 285.982 168.875H286.07C286.252 167.843 286.515 166.522 286.796 165.173L286.869 164.82C286.906 164.644 286.943 164.468 286.981 164.292L287.039 164.019C287.42 162.231 287.813 160.446 288.217 158.663L288.223 158.635L288.233 158.591H291.61L287.703 172.517V179.204H284.371V172.539H284.349L280.486 158.59H283.863V158.591ZM295.428 166.205C294.964 166.205 294.655 166.448 294.457 166.955C294.258 167.463 294.17 168.235 294.17 169.317V174.018C294.17 175.121 294.258 175.938 294.435 176.423C294.611 176.909 294.942 177.152 295.428 177.152C295.891 177.152 296.222 176.909 296.421 176.423C296.62 175.938 296.708 175.121 296.708 174.018V169.317C296.708 168.235 296.62 167.441 296.421 166.955C296.222 166.448 295.891 166.205 295.428 166.205V166.205ZM334.36 166.646C334.091 166.895 333.9 167.201 333.786 167.584L333.764 167.661V176.225C334.038 176.688 334.426 176.997 335.11 177.019C335.463 177.019 335.75 176.887 335.971 176.622C336.192 176.357 336.346 175.916 336.434 175.298C336.519 174.704 336.563 173.887 336.567 172.847V170.751C336.567 169.56 336.523 168.655 336.456 168.015C336.368 167.375 336.258 166.911 336.059 166.646C335.675 166.094 334.845 166.101 334.36 166.646ZM346.035 166.139C345.66 166.161 345.395 166.271 345.24 166.47C345.064 166.69 344.954 167.021 344.887 167.507C344.822 167.983 344.8 169.645 344.799 169.712V170.795H347.271V169.84V169.858C347.269 170.192 347.262 169.664 347.247 169.016L347.245 168.929C347.231 168.36 347.211 167.725 347.183 167.507C347.116 166.999 347.006 166.646 346.83 166.448C346.653 166.249 346.388 166.139 346.035 166.139H346.035Z" fill="white"/>
<path d="M307.235 215.902H313.432V190.604H307.235V215.902ZM296.356 208.691C296.351 209.123 296.175 209.536 295.864 209.841C295.554 210.147 295.135 210.32 294.697 210.324H291.096C290.658 210.32 290.239 210.147 289.929 209.841C289.619 209.536 289.442 209.123 289.437 208.691V198.494H283.241V209.186C283.241 213.559 286.089 215.867 290.267 215.867H296.321C300.174 215.867 302.517 213.131 302.517 209.186V198.49H296.321C296.353 198.49 296.353 208.368 296.353 208.688L296.356 208.691ZM331.194 198.494V208.691C331.189 209.123 331.013 209.536 330.703 209.841C330.392 210.147 329.973 210.32 329.535 210.324H325.931C325.494 210.319 325.075 210.146 324.766 209.84C324.456 209.535 324.28 209.123 324.275 208.691V198.494H318.079V209.186C318.079 213.559 320.924 215.867 325.102 215.867H331.155C335.012 215.867 337.352 213.131 337.352 209.186V198.49L331.194 198.494ZM271.824 198.494H267.86C266.454 198.494 265.77 198.845 265.77 198.845V190.607H259.573V215.87H265.731V205.708C265.731 204.82 266.489 204.075 267.39 204.075H270.994C271.895 204.075 272.65 204.82 272.65 205.708V215.906H278.846V204.89C278.846 200.271 275.712 198.497 271.824 198.497V198.494Z" fill="#00ED82"/>
<path d="M525.688 302V224C525.688 189.333 524.688 159.333 522.688 134C528.688 133 535.021 132.5 541.688 132.5C557.354 132.5 565.188 137.5 565.188 147.5C565.188 148.833 564.854 154.167 564.188 163.5C563.521 172.833 562.854 184.5 562.188 198.5C561.854 212.5 561.688 225.833 561.688 238.5C575.688 238.833 596.688 239 624.688 239C651.688 239 672.021 238.833 685.688 238.5V222.5C685.354 187.5 684.354 158 682.688 134C688.688 133 695.021 132.5 701.688 132.5C717.354 132.5 725.188 137.5 725.188 147.5C725.188 148.833 724.854 154 724.188 163C723.521 172 722.854 183.167 722.188 196.5C721.854 209.833 721.688 222.5 721.688 234.5V313C721.688 348 724.354 373.667 729.687 390C724.688 392 717.354 393 707.688 393C698.688 393 692.521 391.333 689.188 388C686.188 384.667 684.688 379 684.688 371C684.688 367 684.854 356.833 685.188 340.5C685.521 324.167 685.688 311.333 685.688 302V265C671.688 265.333 651.188 265.5 624.187 265.5C596.188 265.5 575.354 265.333 561.688 265V313C561.688 348 564.354 373.667 569.688 390C564.688 392 557.354 393 547.688 393C538.688 393 532.521 391.333 529.188 388C526.188 384.667 524.688 379 524.688 371C524.688 367 524.854 356.833 525.188 340.5C525.521 324.167 525.688 311.333 525.688 302ZM851.656 162C852.656 170 853.156 195.833 853.156 239.5H885.156C907.49 239.5 923.49 239 933.156 238C934.156 240.667 934.656 244.333 934.656 249C934.656 255.667 933.156 260.333 930.156 263C927.49 265.333 923.156 266.667 917.156 267C910.156 267.333 900.656 267.5 888.656 267.5H853.156C853.156 321.167 854.156 353.5 856.156 364.5C868.156 365.167 877.823 365.5 885.156 365.5C929.156 365.5 957.99 362.5 971.656 356.5C973.99 362.5 975.156 368.833 975.156 375.5C975.156 380.833 973.823 384.667 971.156 387C966.156 390.667 943.49 392.5 903.156 392.5C895.156 392.5 882.323 392.333 864.656 392C846.99 392 837.823 392 837.156 392C828.823 391.667 823.156 389.833 820.156 386.5C817.49 383.167 816.156 377.667 816.156 370C816.156 365.333 816.323 355.167 816.656 339.5C816.99 323.5 817.156 311 817.156 302V225.5C817.156 187.5 815.156 157.667 811.156 136C843.823 133.667 874.323 132.5 902.656 132.5C942.99 132.5 965.656 134.5 970.656 138.5C973.323 140.833 974.656 144.667 974.656 150C974.656 156.667 973.49 163 971.156 169C955.156 163.667 930.156 161 896.156 161C883.156 161 868.323 161.333 851.656 162ZM1149.29 286.5C1142.96 271.5 1129.46 236 1108.79 180C1092.12 228 1078.96 263.333 1069.29 286C1089.29 286.667 1104.62 287 1115.29 287C1130.96 287 1142.29 286.833 1149.29 286.5ZM1107.29 313.5C1100.29 313.5 1084.12 313.167 1058.79 312.5C1057.12 316.5 1053.46 325.333 1047.79 339C1042.46 352.667 1038.12 364.167 1034.79 373.5C1031.46 382.5 1028.62 391.333 1026.29 400C1006.62 397.333 996.789 392.167 996.789 384.5C996.789 381.167 998.289 375.667 1001.29 368C1004.62 360.333 1010.12 347.667 1017.79 330C1025.79 312 1033.29 294 1040.29 276C1066.29 209 1083.29 162 1091.29 135C1096.62 134 1102.79 133.5 1109.79 133.5C1117.12 133.5 1122.29 134.667 1125.29 137C1128.29 139 1131.62 144.833 1135.29 154.5C1137.96 161.5 1145.12 181 1156.79 213C1168.79 244.667 1178.12 269 1184.79 286C1200.79 325.333 1216.46 359.5 1231.79 388.5C1222.46 393.167 1214.96 395.5 1209.29 395.5C1199.29 395.5 1192.46 392.167 1188.79 385.5C1186.79 380.833 1176.96 356.5 1159.29 312.5C1130.62 313.167 1113.29 313.5 1107.29 313.5ZM1422.19 357C1429.52 364.333 1437.52 368 1446.19 368C1447.85 368 1451.35 367.667 1456.69 367C1459.02 371.667 1460.19 376 1460.19 380C1460.19 390.333 1449.35 395.5 1427.69 395.5C1418.02 395.5 1408.69 392 1399.69 385C1390.69 377.667 1382.02 367.333 1373.69 354C1365.35 340.333 1358.85 329 1354.19 320C1349.85 310.667 1344.52 298.833 1338.19 284.5C1331.85 283.167 1328.69 279.833 1328.69 274.5C1328.69 271.167 1329.85 266.167 1332.19 259.5C1339.52 261.167 1345.85 262 1351.19 262C1366.52 262 1379.02 257.333 1388.69 248C1398.35 238.333 1403.19 225.333 1403.19 209C1403.19 189.667 1397.85 176.167 1387.19 168.5C1376.52 160.833 1360.19 157 1338.19 157C1336.19 157 1326.19 157.5 1308.19 158.5C1309.52 173.833 1310.19 200 1310.19 237V314C1310.19 348.667 1312.69 374.167 1317.69 390.5C1312.02 392.167 1304.69 393 1295.69 393C1286.69 393 1280.52 391.333 1277.19 388C1274.19 384.667 1272.69 379 1272.69 371C1272.69 367 1272.85 356.833 1273.19 340.5C1273.52 324.167 1273.69 311.333 1273.69 302V224C1273.69 187.333 1271.85 157.5 1268.19 134.5C1286.19 131.5 1307.19 130 1331.19 130C1405.85 130 1443.19 156.167 1443.19 208.5C1443.19 229.167 1437.19 246 1425.19 259C1413.52 272 1397.85 280.667 1378.19 285C1398.52 324 1413.19 348 1422.19 357ZM1646.23 190C1641.57 180.667 1633.4 173 1621.73 167C1610.07 160.667 1597.9 157.5 1585.23 157.5C1571.9 157.5 1560.4 161 1550.73 168C1541.4 174.667 1536.73 184.5 1536.73 197.5C1536.73 207.833 1540.23 216.333 1547.23 223C1554.23 229.333 1562.9 233.833 1573.23 236.5C1583.9 239.167 1595.23 242.333 1607.23 246C1619.57 249.667 1630.9 253.667 1641.23 258C1651.9 262 1660.73 269.167 1667.73 279.5C1674.73 289.5 1678.23 302 1678.23 317C1678.23 344 1668.73 363.833 1649.73 376.5C1631.07 389.167 1608.23 395.5 1581.23 395.5C1559.23 395.5 1539.73 391.833 1522.73 384.5C1506.07 377.167 1497.73 368.167 1497.73 357.5C1497.73 349.167 1505.23 341.333 1520.23 334C1525.57 344 1534.9 352.167 1548.23 358.5C1561.9 364.833 1575.9 368 1590.23 368C1604.9 368 1617.57 364.5 1628.23 357.5C1639.23 350.167 1644.73 339.833 1644.73 326.5C1644.73 314.833 1639.9 305.667 1630.23 299C1620.57 292 1608.73 286.833 1594.73 283.5C1581.07 280.167 1567.23 276.333 1553.23 272C1539.57 267.333 1527.9 259.667 1518.23 249C1508.57 238 1503.73 223.667 1503.73 206C1503.73 181.333 1512.23 162.5 1529.23 149.5C1546.23 136.5 1567.9 130 1594.23 130C1613.57 130 1631.23 133.333 1647.23 140C1663.57 146.333 1671.73 155.333 1671.73 167C1671.73 179 1663.23 186.667 1646.23 190ZM1857.79 286.5C1851.45 271.5 1837.95 236 1817.29 180C1800.62 228 1787.45 263.333 1777.79 286C1797.79 286.667 1813.12 287 1823.79 287C1839.45 287 1850.79 286.833 1857.79 286.5ZM1815.79 313.5C1808.79 313.5 1792.62 313.167 1767.29 312.5C1765.62 316.5 1761.95 325.333 1756.29 339C1750.95 352.667 1746.62 364.167 1743.29 373.5C1739.95 382.5 1737.12 391.333 1734.79 400C1715.12 397.333 1705.29 392.167 1705.29 384.5C1705.29 381.167 1706.79 375.667 1709.79 368C1713.12 360.333 1718.62 347.667 1726.29 330C1734.29 312 1741.79 294 1748.79 276C1774.79 209 1791.79 162 1799.79 135C1805.12 134 1811.29 133.5 1818.29 133.5C1825.62 133.5 1830.79 134.667 1833.79 137C1836.79 139 1840.12 144.833 1843.79 154.5C1846.45 161.5 1853.62 181 1865.29 213C1877.29 244.667 1886.62 269 1893.29 286C1909.29 325.333 1924.95 359.5 1940.29 388.5C1930.95 393.167 1923.45 395.5 1917.79 395.5C1907.79 395.5 1900.95 392.167 1897.29 385.5C1895.29 380.833 1885.45 356.5 1867.79 312.5C1839.12 313.167 1821.79 313.5 1815.79 313.5ZM2113.9 150C2113.9 158 2104.4 175.667 2085.4 203C2066.4 230.333 2048.4 253.833 2031.4 273.5V311C2031.4 346.333 2033.9 372.667 2038.9 390C2033.9 392 2026.57 393 2016.9 393C2007.9 393 2001.9 391.333 1998.9 388C1995.9 384.667 1994.4 379 1994.4 371C1994.4 370 1994.4 361.167 1994.4 344.5C1994.73 327.5 1994.9 313.333 1994.9 302V275.5C1955.9 206.167 1926.23 165 1905.9 152C1917.23 138.667 1927.23 132 1935.9 132C1944.23 132 1951.57 136.5 1957.9 145.5C1978.57 174.5 1999.07 208 2019.4 246C2032.73 227.667 2045.9 206 2058.9 181C2071.9 156 2078.73 139 2079.4 130C2102.4 131.333 2113.9 138 2113.9 150Z" fill="white"/>
</svg>
